<svg width="48" height="48" fill="none" xmlns="http://www.w3.org/2000/svg"><path fill-rule="evenodd" clip-rule="evenodd" d="M36.54 12.423a9.125 9.125 0 0 0-12.905 0 9.127 9.127 0 0 0-2.043 9.788.875.875 0 0 1-.196.938L9.75 34.794v4.42h4.42l1.677-1.678.655-3.276a.875.875 0 0 1 .687-.686l3.275-.655 1.934-1.934 3.418-3.417a.875.875 0 0 1 .937-.196 9.127 9.127 0 0 0 9.787-2.045 9.125 9.125 0 0 0 0-12.904Zm-14.142-1.238c4.247-4.247 11.133-4.247 15.38 0 4.247 4.247 4.247 11.133 0 15.38a10.875 10.875 0 0 1-11.118 2.633l-3.024 3.024-2.121 2.122a.874.874 0 0 1-.448.239l-2.963.593-.593 2.963a.876.876 0 0 1-.24.447l-2.12 2.122a.875.875 0 0 1-.62.256H8.876A.875.875 0 0 1 8 40.089v-5.657c0-.232.092-.455.256-.619l11.51-11.509a10.875 10.875 0 0 1 2.632-11.119Zm8.485 6.895a1.125 1.125 0 1 0-1.59 1.591 1.125 1.125 0 0 0 1.59-1.59Zm-2.828-1.237a2.875 2.875 0 1 1 4.066 4.066 2.875 2.875 0 0 1-4.066-4.066Zm-4.242 7.07-7.071 7.071 1.237 1.237 7.071-7.07-1.237-1.238Z" fill="#5D6066"/></svg>